<?xml version="1.0" encoding="UTF-8" standalone="no"?>
<!DOCTYPE svg PUBLIC "-//W3C//DTD SVG 1.1//EN" "http://www.w3.org/Graphics/SVG/1.1/DTD/svg11.dtd">
<svg version="1.1" xmlns="http://www.w3.org/2000/svg" xmlns:xlink="http://www.w3.org/1999/xlink" preserveAspectRatio="xMidYMid meet" viewBox="0 0 640 640" width="6400" height="6400"><defs><path d="M281.24 284.31C281.32 284.39 281.36 284.51 281.35 284.62C281.35 284.74 281.29 284.84 281.21 284.91C281.23 284.93 281.32 285.05 281.49 285.26C281.68 285.45 281.78 285.56 281.8 285.58C282.06 285.35 282.22 285.03 282.24 284.68C282.27 284.32 282.14 283.96 281.89 283.7C281.72 283.52 281.44 283.51 281.26 283.68C281.08 283.84 281.07 284.13 281.24 284.31Z" id="bkyBeKCoz"></path><path d="M284.57 286.28C284.55 286.26 284.54 286.24 284.53 286.22C284.53 286.22 284.53 286.22 284.53 286.22C284.53 286.22 284.53 286.22 284.53 286.22C284.47 286.15 283.99 285.6 283.93 285.53C283.36 284.88 283.13 284.02 283.28 283.15C283.28 283.14 283.29 283.08 283.29 283.07C283.31 282.82 283.21 282.58 283.02 282.42C283.01 282.4 282.99 282.38 282.96 282.36C281.8 281.43 280.54 280.61 279.21 279.93C279.27 279.6 279.76 276.96 279.83 276.63C279.83 276.61 279.83 276.59 279.83 276.57C279.85 276.11 279.86 275.76 279.56 275.53C279.27 275.31 278.9 275.39 278.48 275.51C278.48 275.51 278.48 275.51 278.48 275.51C278.48 275.51 278.47 275.51 278.47 275.51C278.47 275.51 278.47 275.51 278.47 275.51C278.46 275.51 278.46 275.51 278.45 275.51C275.9 276.32 274.35 277.53 273.71 279.21C269.96 280.77 269.66 281.45 268.29 284.53C268.29 284.53 268.29 284.53 268.29 284.53C268.29 284.54 268.29 284.54 268.29 284.54C267.4 286.68 266.33 288.63 262.94 289.03C262.94 289.03 262.94 289.03 262.94 289.03C262.94 289.03 262.93 289.03 262.93 289.03C259.82 289.2 256.9 290.19 254.39 291.79C254.01 291.31 253.58 290.87 253.09 290.5C252.01 289.68 250.74 289.19 249.39 289.07C248.07 288.95 246.7 289.22 245.54 289.81C244.35 290.41 243.37 291.34 242.68 292.48C241.99 293.61 241.64 294.91 241.66 296.24C241.67 297.09 242.37 297.78 243.22 297.78C244.07 297.78 244.76 297.09 244.78 296.24C244.79 295.52 245.01 294.79 245.4 294.18C245.78 293.58 246.35 293.08 246.99 292.78C247.62 292.48 248.35 292.37 249.05 292.45C249.74 292.53 250.41 292.81 250.95 293.25C251.2 293.45 251.43 293.69 251.62 293.95C250.09 295.4 248.82 297.11 247.87 299.02C245.65 299.76 243.57 301.35 242.15 303.42C240.62 305.61 239.92 308.4 240.22 311.08C240.22 311.1 240.22 311.27 240.21 311.29C240.21 311.31 240.21 311.33 240.22 311.36C240.83 316.89 243.91 319.79 249.38 319.99C249.41 320 249.44 320 249.48 320C249.51 320 249.76 320 249.79 320C249.8 320 249.82 320 249.83 320C249.84 320 249.87 320 249.89 320C251.82 319.99 267.32 319.94 269.25 319.93C269.43 319.93 269.6 319.82 269.66 319.66C269.79 319.35 269.86 319.03 269.86 318.7C269.86 317.51 269 316.51 267.86 316.3C267.94 308.47 270.07 306.89 273.55 304.3C273.81 304.11 274.08 303.91 274.35 303.7C274.36 303.7 274.37 303.69 274.38 303.69C277.88 301.21 278.18 300.23 278.18 296.33C278.18 296.33 278.18 296.33 278.18 296.33C278.18 295.85 278.17 295.38 278.17 294.94C278.13 293.08 278.1 291.48 278.79 290.77C279.12 290.44 279.62 290.28 280.32 290.28C280.33 290.28 280.33 290.28 280.33 290.28C282.36 290.41 284.2 289.09 284.74 287.13C284.75 287.08 284.75 287.04 284.75 287C284.79 286.76 284.73 286.52 284.59 286.32C284.58 286.3 284.57 286.29 284.57 286.28ZM249.16 291.56C248.29 291.46 247.38 291.61 246.61 291.98C245.82 292.35 245.12 292.96 244.65 293.7C244.17 294.44 243.9 295.34 243.89 296.23C243.88 296.59 243.58 296.89 243.22 296.89C242.86 296.89 242.56 296.59 242.55 296.23C242.54 295.07 242.84 293.93 243.44 292.94C244.04 291.94 244.91 291.13 245.95 290.61C246.96 290.09 248.16 289.86 249.32 289.96C250.49 290.06 251.61 290.49 252.55 291.21C252.96 291.52 253.33 291.88 253.65 292.28C253.18 292.62 252.72 292.97 252.28 293.35C252.06 293.05 251.8 292.78 251.51 292.56C250.85 292.01 250.01 291.66 249.16 291.56ZM280.34 289.39C280.33 289.39 280.33 289.39 280.32 289.39C279.36 289.39 278.66 289.64 278.16 290.15C277.2 291.12 277.23 292.81 277.27 294.95C277.28 295.39 277.29 295.85 277.29 296.33C277.29 299.99 277.08 300.68 273.9 302.93C273.88 302.94 273.87 302.95 273.85 302.96C273.57 303.18 273.29 303.38 273.02 303.58C269.38 306.29 266.97 308.07 266.97 316.7C266.97 316.95 267.17 317.15 267.42 317.15C268.27 317.15 268.96 317.85 268.96 318.7C268.96 318.82 268.95 318.93 268.93 319.04C268.6 319.04 266.01 319.05 265.68 319.05C265.7 318.93 265.71 318.82 265.71 318.7C265.71 317.77 265.19 316.96 264.42 316.54C264.07 314.87 263.89 313.15 263.89 311.43C263.89 310.05 264.01 308.67 264.23 307.32C264.27 307.08 264.11 306.85 263.86 306.81C263.62 306.77 263.39 306.93 263.35 307.17C263.12 308.57 263 310 263 311.43C263 312.25 263.05 313.07 263.12 313.89C263.1 313.94 263.09 314 263.09 314.06C263.09 315.27 262.11 316.26 260.91 316.26C260.74 316.26 259.46 316.26 259.29 316.26C259.05 316.26 258.85 316.45 258.85 316.7C258.85 316.95 259.05 317.15 259.29 317.15C259.69 317.15 262.88 317.15 263.28 317.15C264.13 317.15 264.82 317.84 264.82 318.7C264.82 318.82 264.81 318.94 264.78 319.05C263.27 319.06 251.2 319.1 249.7 319.1C247.64 319.08 241.97 318.87 241.11 311.29C241.11 311.27 241.12 311.1 241.12 311.08C241.12 311.06 241.12 311.03 241.12 311.01C240.83 308.53 241.47 305.95 242.88 303.92C244.02 302.26 245.62 300.94 247.35 300.18C246.93 301.19 246.61 302.25 246.38 303.34C245.73 303.87 245.18 304.49 244.74 305.18C243.69 306.78 243.25 308.8 243.53 310.7C243.63 311.45 243.85 312.19 244.19 312.93C244.44 313.37 244.86 313.62 245.37 313.62C246.08 313.62 246.66 313.04 246.66 312.33C246.66 312.26 246.65 312.2 246.65 312.16C246.4 309.58 246.55 306.97 247.1 304.39C248.32 296.43 255.03 290.33 263.06 289.91C263.06 289.91 263.06 289.91 263.06 289.91C266.91 289.46 268.16 287.19 269.11 284.89C270.47 281.83 270.64 281.44 274.23 279.96C274.35 279.91 274.45 279.81 274.49 279.69C274.64 279.21 274.9 278.78 275.24 278.39C275.15 278.65 275.09 278.92 275.07 279.2C275 280.18 275.3 281.15 275.9 281.95C276.05 282.15 276.33 282.19 276.52 282.04C276.72 281.89 276.76 281.61 276.61 281.41C276.13 280.78 275.91 280.03 275.96 279.26C276.05 277.97 277.38 276.84 278.65 276.39C278.68 276.38 278.71 276.37 278.74 276.35C278.74 276.35 278.74 276.35 278.75 276.35C278.83 276.33 278.89 276.31 278.94 276.3C278.94 276.37 278.94 276.44 278.94 276.5C278.88 276.85 278.36 279.64 278.29 279.99C278.27 280.04 278.26 280.09 278.25 280.14C278.25 280.15 278.25 280.23 278.25 280.24C278.25 280.24 278.25 280.24 278.25 280.24C278.25 280.24 278.25 280.24 278.25 280.24C278.25 280.24 278.25 280.24 278.25 280.24C278.25 280.24 278.25 280.24 278.25 280.24C278.23 280.53 278.32 280.8 278.5 281C278.59 281.11 278.72 281.16 278.84 281.16C278.94 281.16 279.05 281.12 279.13 281.05C279.17 281.02 279.19 280.98 279.21 280.95C280.3 281.54 281.35 282.22 282.33 283C282.35 283.02 282.37 283.04 282.39 283.06C282.21 284.16 282.52 285.27 283.25 286.11C283.29 286.15 283.46 286.36 283.78 286.72C283.82 286.89 283.84 286.98 283.84 287C283.38 288.5 281.95 289.5 280.34 289.39C280.34 289.39 280.34 289.39 280.34 289.39ZM263.28 316.26C263.26 316.26 263.19 316.26 263.06 316.26C263.06 316.26 263.06 316.26 263.06 316.26C263.18 316.14 263.29 316.01 263.39 315.87C263.41 316 263.44 316.13 263.46 316.27C263.4 316.26 263.34 316.26 263.28 316.26ZM245.77 312.33C245.77 312.55 245.59 312.73 245.37 312.73C245.3 312.73 245.1 312.73 244.99 312.52C244.7 311.9 244.5 311.24 244.41 310.57C244.16 308.88 244.55 307.09 245.49 305.67C245.67 305.39 245.87 305.12 246.09 304.86C245.64 307.3 245.52 309.78 245.76 312.27C245.77 312.29 245.77 312.31 245.77 312.33Z" id="c224VR2omf"></path><path d="M305.79 301.39L310.72 307.27L308.65 307.27L304.65 302.34L303.19 303.55L303.19 307.27L301.71 307.27L301.71 297.25L303.19 297.25L303.19 301.82L308.54 297.25L310.72 297.25L305.79 301.39ZM317.67 302.66C317.67 302.97 317.67 304.5 317.67 307.27L316.29 307.27C316.29 306.84 316.29 306.6 316.29 306.55C315.81 307.2 314.96 307.39 314.42 307.39C312.91 307.39 311.92 306.51 311.92 305.33C311.92 303.69 313.15 303.1 314.42 303.1C314.55 303.1 315.17 303.1 316.29 303.1C316.29 302.83 316.29 302.69 316.29 302.66C316.29 302.24 316.13 301.67 315.01 301.67C314.38 301.67 313.81 302 313.43 302.52C313.34 302.44 312.58 301.76 312.48 301.67C313.11 300.97 314.01 300.53 315.01 300.53C316.91 300.53 317.67 301.68 317.67 302.66ZM316.29 304.22C315.28 304.22 314.72 304.22 314.61 304.22C313.79 304.22 313.22 304.64 313.31 305.38C313.39 306.01 313.9 306.27 314.61 306.27C315.88 306.27 316.29 305.67 316.29 305.21C316.29 305.08 316.29 304.75 316.29 304.22ZM325.43 307.27L324.06 307.27C324.06 305.06 324.06 303.84 324.06 303.59C324.06 302.26 323.64 301.67 322.51 301.67C321.22 301.67 320.7 302.56 320.7 303.73C320.7 303.96 320.7 305.14 320.7 307.27L319.33 307.27L319.33 300.67L320.7 300.67C320.7 301.31 320.7 301.67 320.7 301.74C320.89 301.15 321.72 300.61 322.51 300.56C324.3 300.43 325.43 301.3 325.43 303.46C325.43 303.97 325.43 305.24 325.43 307.27ZM330.3 300.55C330.95 300.55 331.75 300.83 332.2 301.19C332.2 300.93 332.2 299.61 332.2 297.25L333.59 297.25L333.59 307.27L332.2 307.27C332.2 306.97 332.2 306.81 332.2 306.77C331.67 307.16 330.95 307.4 330.3 307.4C328.4 307.4 327 305.95 327 303.98C327 302.02 328.4 300.55 330.3 300.55ZM330.43 306.28C331.18 306.28 331.85 305.93 332.2 305.22C332.38 304.86 332.49 304.44 332.49 303.98C332.49 303.53 332.38 303.1 332.2 302.73C331.85 302.02 331.18 301.68 330.43 301.68C329.31 301.68 328.39 302.63 328.39 303.98C328.39 305.32 329.31 306.28 330.43 306.28ZM340.94 302.66C340.94 302.97 340.94 304.5 340.94 307.27L339.56 307.27C339.56 306.84 339.56 306.6 339.56 306.55C339.08 307.2 338.22 307.39 337.69 307.39C336.18 307.39 335.19 306.51 335.19 305.33C335.19 303.69 336.42 303.1 337.69 303.1C337.81 303.1 338.44 303.1 339.56 303.1C339.56 302.83 339.56 302.69 339.56 302.66C339.56 302.24 339.4 301.67 338.28 301.67C337.65 301.67 337.07 302 336.7 302.52C336.6 302.44 335.85 301.76 335.75 301.67C336.38 300.97 337.27 300.53 338.28 300.53C340.17 300.53 340.94 301.68 340.94 302.66ZM339.56 304.22C338.55 304.22 337.99 304.22 337.88 304.22C337.06 304.22 336.49 304.64 336.58 305.38C336.66 306.01 337.17 306.27 337.88 306.27C339.15 306.27 339.56 305.67 339.56 305.21C339.56 305.08 339.56 304.75 339.56 304.22ZM347.75 304.37L342.99 304.37L342.99 303.25L347.75 303.25L347.75 304.37ZM361.56 297.25L361.56 307.27L360.07 307.27L360.07 299.75L356.21 307.27L355.37 307.27L351.51 299.75L351.51 307.27L350.02 307.27L350.02 297.25L350.22 297.25L351.81 297.25L355.78 305L359.75 297.25L361.34 297.25L361.56 297.25ZM369.04 302.66C369.04 302.97 369.04 304.5 369.04 307.27L367.66 307.27C367.66 306.84 367.66 306.6 367.66 306.55C367.18 307.2 366.33 307.39 365.79 307.39C364.28 307.39 363.29 306.51 363.29 305.33C363.29 303.69 364.52 303.1 365.79 303.1C365.92 303.1 366.54 303.1 367.66 303.1C367.66 302.83 367.66 302.69 367.66 302.66C367.66 302.24 367.5 301.67 366.38 301.67C365.75 301.67 365.18 302 364.8 302.52C364.71 302.44 363.95 301.76 363.86 301.67C364.48 300.97 365.38 300.53 366.38 300.53C368.28 300.53 369.04 301.68 369.04 302.66ZM367.66 304.22C366.65 304.22 366.09 304.22 365.98 304.22C365.17 304.22 364.59 304.64 364.68 305.38C364.76 306.01 365.27 306.27 365.98 306.27C367.25 306.27 367.66 305.67 367.66 305.21C367.66 305.08 367.66 304.75 367.66 304.22ZM375.31 306.11C374.96 306.89 374.04 307.4 372.89 307.4C372.89 307.4 372.88 307.4 372.88 307.4C371.95 307.4 371.11 307.02 370.48 306.4C370.57 306.31 371.29 305.59 371.38 305.51C371.75 305.99 372.29 306.23 372.88 306.23C373.53 306.23 374.08 305.99 374.23 305.64C374.32 305.4 374.24 305.14 374.24 305.12C374.08 304.72 373.49 304.64 372.82 304.49C371.93 304.29 371.03 304.06 370.69 303.13C370.51 302.65 370.56 302.08 370.81 301.62C371.35 300.59 372.72 300.55 372.88 300.55C373.8 300.55 374.67 300.89 375.28 301.52C375.19 301.61 374.48 302.33 374.39 302.42C374.01 301.94 373.46 301.72 372.88 301.72C372.86 301.72 372.08 301.74 371.85 302.18C371.77 302.31 371.73 302.54 371.79 302.73C371.93 303.1 372.53 303.22 373.17 303.37C374.04 303.57 374.99 303.77 375.34 304.7C375.36 304.78 375.59 305.44 375.31 306.11ZM383.22 307.27L381.84 307.27C381.84 305.06 381.84 303.84 381.84 303.59C381.84 302.26 381.43 301.67 380.29 301.67C379.01 301.67 378.49 302.56 378.49 303.73C378.49 303.96 378.49 305.14 378.49 307.27L377.11 307.27L377.11 297.25L378.49 297.25C378.49 299.94 378.49 301.44 378.49 301.74C378.68 301.15 379.51 300.61 380.29 300.56C382.08 300.43 383.22 301.3 383.22 303.46C383.22 303.97 383.22 305.24 383.22 307.27ZM386.54 307.27L385.16 307.27L385.16 300.67L386.54 300.67L386.54 307.27ZM385.84 299.01C385.43 299.01 385.09 298.68 385.09 298.25C385.09 297.83 385.43 297.5 385.84 297.5C386.27 297.5 386.6 297.83 386.6 298.25C386.6 298.68 386.27 299.01 385.84 299.01ZM392.15 301.83C392.05 301.78 391.76 301.68 391.52 301.68C390.38 301.68 389.85 302.77 389.85 304.1C389.85 304.31 389.85 305.37 389.85 307.27L388.47 307.27L388.47 300.67L389.85 300.67C389.85 301.23 389.85 301.54 389.85 301.6C390.01 300.99 390.72 300.55 391.51 300.55C391.87 300.55 392.26 300.64 392.44 300.75C392.38 300.96 392.18 301.72 392.15 301.83ZM394.35 303.98C394.35 305.32 395.28 306.28 396.41 306.28C397.55 306.28 398.47 305.32 398.47 303.98C398.47 302.63 397.55 301.68 396.41 301.68C395.28 301.68 394.35 302.63 394.35 303.98ZM399.85 303.98C399.85 305.95 398.31 307.4 396.41 307.4C394.51 307.4 392.98 305.95 392.98 303.98C392.98 302.02 394.51 300.55 396.41 300.55C398.31 300.55 399.85 302.02 399.85 303.98Z" id="e1i63KHPE1"></path></defs><g><g><use xlink:href="#bkyBeKCoz" opacity="1" fill="#000000" fill-opacity="1"></use><g><use xlink:href="#bkyBeKCoz" opacity="1" fill-opacity="0" stroke="#000000" stroke-width="1" stroke-opacity="0"></use></g></g><g><use xlink:href="#c224VR2omf" opacity="1" fill="#000000" fill-opacity="1"></use><g><use xlink:href="#c224VR2omf" opacity="1" fill-opacity="0" stroke="#000000" stroke-width="1" stroke-opacity="0"></use></g></g><g><use xlink:href="#e1i63KHPE1" opacity="1" fill="#000000" fill-opacity="1"></use><g><use xlink:href="#e1i63KHPE1" opacity="1" fill-opacity="0" stroke="#000000" stroke-width="1" stroke-opacity="0"></use></g></g></g></svg>